<svg xmlns="http://www.w3.org/2000/svg" viewBox="0 0 226.62 279.71"><defs><style>.cls-1{fill:#29abe2;}.cls-2{fill:#fff;}.cls-3{fill:#e5e5e5;}.cls-4{fill:#005eb4;}.cls-5{fill:#005eb5;}.cls-6{fill:#015eb4;}.cls-7{fill:#e6e5e5;}.cls-8{fill:#a6e0e0;}.cls-9{fill:#522727;}.cls-10{fill:#c1f2f2;}.cls-11{fill:#723f3f;}.cls-12{fill:#936161;}.cls-13{fill:#568585;}.cls-14{fill:#6a9e9e;}.cls-15{fill:#679999;}.cls-16{fill:#5d8e8e;}.cls-17{fill:#73a6a6;}.cls-18{fill:#a57a7a;}.cls-19{fill:#a2a2a2;}.cls-20{fill:#859191;}.cls-21{fill:#838383;}.cls-22{fill:#7b7777;}</style></defs><g id="Layer_2" data-name="Layer 2"><g id="Layer_1-2" data-name="Layer 1"><path class="cls-1" d="M218.71,154.79c-1.33.6-2.67,1.19-4,1.77l-9.32,4-5.31,2.29-4.24,1.85c-2.39,1.06-4.79,2.12-7.18,3.16L181.58,171c-1.73.75-3.47,1.48-5.19,2.25-1,.45-2,.94-3,1.42l-.69.18a2.84,2.84,0,0,1-.32-.5c-.35-1-.65-2-1-3a24.48,24.48,0,0,0-3.31-6.09c-.31-.4-.69-.75-1-1.13l-.29-.2h0a2.75,2.75,0,0,0-.31-.67,20,20,0,0,0-4.12-3.46,25.07,25.07,0,0,0-12.12-3.82,32.13,32.13,0,0,0-6.93.25,38.47,38.47,0,0,0-6.86,1.63,37.81,37.81,0,0,0-13.1,7.94,42,42,0,0,0-4.83,5.49,37.15,37.15,0,0,0-3.26,5.08c-.71,1.28-1.36,2.58-1.94,3.92a46.48,46.48,0,0,0-2.63,8,39.6,39.6,0,0,0-1.12,8.12c0,.55-.11,1.11-.14,1.66s0,1.2,0,1.79c0,.34.12.68.11,1a22.88,22.88,0,0,0,.57,5.22,29,29,0,0,0,2.08,6.33,26,26,0,0,0,4.13,6.18,17.61,17.61,0,0,0,3.53,3,3.57,3.57,0,0,0,.57.23l.26.27a20.09,20.09,0,0,0,6.45,2.82,29.63,29.63,0,0,0,10.86.65c7.75-.83,14.32-4.2,20.08-9.31a53.94,53.94,0,0,0,5.47-5.64l1-1.11c.29.21.58.38.83.6l25.51,21.08,8.43,7c.4.32.86.6.93,1.17-.49,0-.71.43-1,.77a72,72,0,0,1-5.08,6c-1.95,2.05-3.95,4.06-6.08,5.93a83.31,83.31,0,0,1-8.11,6.29,76,76,0,0,1-13.1,7.08,82.84,82.84,0,0,1-12.93,4.24c-2,.49-4.11.83-6.15,1.25a48,48,0,0,1-5.47.76c-.93.08-1.87.15-2.8.29a37.22,37.22,0,0,1-5.37.4,97.74,97.74,0,0,1-12.34-.18c-1.4-.15-2.82-.14-4.22-.32q-3.3-.42-6.59-1a78.07,78.07,0,0,1-10.21-2.53,61.92,61.92,0,0,1-7.44-2.84c-2.06-1-4.13-1.91-6.12-3a62.88,62.88,0,0,1-7.94-5.23,2.66,2.66,0,0,0-.67-.25,3.19,3.19,0,0,1-.26-.26h0l-.27-.25c-.09-.09-.18-.16-.27-.24-.53-.5-1-1-1.59-1.5a61.39,61.39,0,0,1-17.65-26.17,69.13,69.13,0,0,1-3.41-14.63,80.54,80.54,0,0,1-.65-11.3,93.57,93.57,0,0,1,3.58-24,2,2,0,0,1,1.1-1.31c3.23-1.69,6.45-3.41,9.66-5.12.31-.16.6-.34.91-.48a1.55,1.55,0,0,0,.91-1.16c.49-1.91,1-3.81,1.52-5.71q2.1-7.83,4.2-15.66a31,31,0,0,1,22.85-22.2,33.05,33.05,0,0,1,7.4-.83c4.94,0,9.88,0,14.81,0,1.76,0,3.51-.13,5.27-.26a43.5,43.5,0,0,0,7.32-1.37,82.34,82.34,0,0,0,20.41-8,66.1,66.1,0,0,0,9.26-6.28c.2-.16.41-.32.6-.49a1.26,1.26,0,0,1,1.06-.29,72.51,72.51,0,0,1,21.53,5.76,57.88,57.88,0,0,1,19.58,14.14c.69.76,1.37,1.53,2.06,2.3l.26.27h0l.26.26.26.26h0c-.1.33.12.55.29.79.77,1.09,1.55,2.17,2.28,3.28a56.82,56.82,0,0,1,3.66,6.79,54.37,54.37,0,0,1,2.93,7.81c.28.9.52,1.81.75,2.73C219.33,154.35,219.21,154.57,218.71,154.79Z"/><path class="cls-2" d="M174.47,53.7c-.22,1.3-.07,2.64-.27,4s-.35,2.54-.51,3.8A51.17,51.17,0,0,1,172,69.23a59.09,59.09,0,0,1-4.61,11.42,69.71,69.71,0,0,1-3.67,6,44.42,44.42,0,0,1-5.35,6.56,65.64,65.64,0,0,1-4.83,4.61c-1.47,1.19-2.92,2.39-4.46,3.46a54.39,54.39,0,0,1-6.32,4c-1.86,1-3.7,2-5.61,2.86s-3.82,1.52-5.73,2.28a54.8,54.8,0,0,1-6.72,2.17,58.65,58.65,0,0,1-7.38,1.65,28.53,28.53,0,0,1-3.69.41l-17,0a4.94,4.94,0,0,0-1.28.06,6.84,6.84,0,0,1-1.91.17,22.53,22.53,0,0,0-2.94.23,30.23,30.23,0,0,0-9,2.76,32,32,0,0,0-8.14,5.78,30.25,30.25,0,0,0-8.39,14.64c-.44,1.74-.91,3.47-1.38,5.2-.72,2.65-1.46,5.29-2.17,7.93s-1.39,5.21-2.07,7.82a1.46,1.46,0,0,1-.64.92c-.59.35-1.19.7-1.79,1-2.68,1.44-5.37,2.86-8.06,4.29L40.26,170l-7.95,4.22-8.51,4.53-4.09,2.16c-2.89,1.53-5.76,3.07-8.64,4.58-2.55,1.34-5.11,2.64-7.65,4a9.53,9.53,0,0,0-1.09.69,1.31,1.31,0,0,0-.26.41l-.3.07c-.08,0-.13,0-.16.06l-1.34.47-.22-.26q1-4.32,2-8.63,3.15-13.58,6.29-27.15,2.78-12,5.56-23.9c.18-.79.38-1.57.57-2.37l.13-.33c0-.15.07-.31.1-.46s.08-.21.12-.32a3.9,3.9,0,0,0,.12-.46l.12-.32c.06-.22.13-.45.2-.68s.08-.22.13-.33A69.6,69.6,0,0,1,60.16,81.64c.28-.1.57-.18.86-.27l.8-.24h0a1,1,0,0,0,.81-.24l.18,0h0l.81-.22h0a1.47,1.47,0,0,0,1-.27h0a1.44,1.44,0,0,0,1-.25h0a1.4,1.4,0,0,0,1-.25l1.48-.28a2.18,2.18,0,0,0,1.33-.24h0l.53,0,1-.22h0a3.83,3.83,0,0,0,1.8-.25,6.39,6.39,0,0,0,2.34-.25,1.52,1.52,0,0,0,.21,0l2,0c1.37,0,2.73.06,4.1.06q6.64,0,13.3,0a5.73,5.73,0,0,0,1-.18L97.14,78h.21a3.59,3.59,0,0,0,1.86-.24l.2,0H100l.8-.22.19,0a1.4,1.4,0,0,0,1.1-.24l1.23-.28a.91.91,0,0,0,.83-.23l.19,0a1,1,0,0,0,.83-.24l.73-.25a.87.87,0,0,0,.79-.27h0a.85.85,0,0,0,.75-.28l.55-.23a23.84,23.84,0,0,0,6.34-3.83,18.18,18.18,0,0,0,6.34-12.22,15.15,15.15,0,0,0-.6-6.59c-.05-.11-.1-.22-.14-.33s-.06-.19-.08-.28L119.6,52l0,0a4,4,0,0,0-.21-.86,11.91,11.91,0,0,0-3.12-4,17.44,17.44,0,0,0-6.62-3.28,28.65,28.65,0,0,0-3.5-.73,29,29,0,0,0-3.83-.34c-6.14,0-12.28,0-18.41,0a45.91,45.91,0,0,1-7.41-.49,33.7,33.7,0,0,1-4.87-1.12,33.41,33.41,0,0,1-8-3.76,1.43,1.43,0,0,0-1-.3c-.09-.1-.17-.21-.25-.31l-.19-.21-1.17-1A33.8,33.8,0,0,1,50.25,21.12a.44.44,0,0,0-.22-.53.79.79,0,0,1-.06-.22c0-.1-.08-.21-.13-.31l-.13-.45c-.05-.11-.09-.22-.13-.32s-.08-.31-.13-.46-.07-.21-.11-.32-.11-.46-.18-.68a3.4,3.4,0,0,0-.12-.34c-.19-.85-.37-1.7-.56-2.55a.36.36,0,0,0-.06-.51A30.26,30.26,0,0,1,48,6.37a31.86,31.86,0,0,1,1-6.06l.1,0,.09,0c.47,0,.94,0,1.41,0h53.53c.51,0,1-.06,1.53-.09l2.69.06c1,0,1.95,0,2.93,0h.22a21.5,21.5,0,0,0,4.39.26h0L118,.74h1.06a.7.7,0,0,0,.21,0,6.42,6.42,0,0,0,2.35.25h0a4.6,4.6,0,0,0,2.08.26h0l1.29.24h.56l.2,0a2.9,2.9,0,0,0,1.57.25,3,3,0,0,0,1.54.25h0l.75.2.56,0,.2,0a2.09,2.09,0,0,0,1.34.26l1.23.26a1.45,1.45,0,0,0,1.07.25,1.44,1.44,0,0,0,1,.25h0a1.43,1.43,0,0,0,1,.26h0a1.42,1.42,0,0,0,1,.26h0l.81.24,1,.27a.91.91,0,0,0,.8.25h0l.78.25.77.26.77.26h0l.77.27a.85.85,0,0,0,.76.28l.54.21a.91.91,0,0,0,.77.29A52.6,52.6,0,0,1,158,14a46.62,46.62,0,0,1,6.79,6.61c.51.62,1.1,1.18,1.66,1.76a2.79,2.79,0,0,0,.18.6c.41.7.83,1.4,1.29,2.07a33.89,33.89,0,0,1,3.57,7.12A39.39,39.39,0,0,1,174,41.57a31.07,31.07,0,0,1,.48,4.72,6.83,6.83,0,0,0,.09.76,8.2,8.2,0,0,1,.14,1.4A35.45,35.45,0,0,1,174.47,53.7Z"/><path class="cls-3" d="M182,58a67.92,67.92,0,0,1-3,19.88,58.42,58.42,0,0,1-22.31,30.62A74.52,74.52,0,0,1,136,118.74c-1.42.46-2.87.87-4.31,1.3a.85.85,0,0,0-.83.23l-4.59,1a1.76,1.76,0,0,0-1.32.24l-.21,0a2.47,2.47,0,0,0-1.6.24l-.2,0-3.12.24H107.2c-2,0-4.11,0-6.17,0a15.23,15.23,0,0,0-1.89.23l-2.27.25a1.66,1.66,0,0,0-1.31.26,30.8,30.8,0,0,0-20.18,14.92,31.3,31.3,0,0,0-3.2,8q-2.72,10.19-5.45,20.36a1.83,1.83,0,0,0-.06.25,1.61,1.61,0,0,1-1.17,1.37c-1.48.55-2.94,1.18-4.4,1.79-6.88,2.87-13.9,5.4-20.89,8C33.86,179.81,27.44,182,21,184.17q-8.92,3.06-17.87,6.08c-.37.12-.74.21-1.1.31a1.31,1.31,0,0,1,.26-.41,9.53,9.53,0,0,1,1.09-.69c2.54-1.33,5.1-2.63,7.65-4,2.88-1.51,5.75-3.05,8.64-4.58l4.09-2.16,8.51-4.53L40.26,170l8.52-4.52c2.69-1.43,5.38-2.85,8.06-4.29.6-.32,1.2-.67,1.79-1a1.46,1.46,0,0,0,.64-.92c.68-2.61,1.37-5.21,2.07-7.82s1.45-5.28,2.17-7.93c.47-1.73.94-3.46,1.38-5.2a30.25,30.25,0,0,1,8.39-14.64,32,32,0,0,1,8.14-5.78,30.23,30.23,0,0,1,9-2.76,22.53,22.53,0,0,1,2.94-.23,6.84,6.84,0,0,0,1.91-.17,4.94,4.94,0,0,1,1.28-.06l17,0a28.53,28.53,0,0,0,3.69-.41,58.65,58.65,0,0,0,7.38-1.65,54.8,54.8,0,0,0,6.72-2.17c1.91-.76,3.85-1.43,5.73-2.28s3.75-1.89,5.61-2.86a54.39,54.39,0,0,0,6.32-4c1.54-1.07,3-2.27,4.46-3.46a65.64,65.64,0,0,0,4.83-4.61,44.42,44.42,0,0,0,5.35-6.56,69.71,69.71,0,0,0,3.67-6A59.09,59.09,0,0,0,172,69.23a51.17,51.17,0,0,0,1.72-7.76c.16-1.26.33-2.54.51-3.8s.05-2.67.27-4a35.45,35.45,0,0,0,.19-5.25,8.2,8.2,0,0,0-.14-1.4,6.83,6.83,0,0,1-.09-.76,31.07,31.07,0,0,0-.48-4.72,39.39,39.39,0,0,0-2.45-9.41A33.89,33.89,0,0,0,167.93,25c-.46-.67-.88-1.37-1.29-2.07a2.79,2.79,0,0,1-.18-.6,2.58,2.58,0,0,1,.43.26,41.48,41.48,0,0,1,12.72,19.08c0,.1.08.21.13.32A51.18,51.18,0,0,1,182,58Z"/><path class="cls-4" d="M208,245.4c-.23.35-.41.68-.64,1a94.9,94.9,0,0,1-8.39,9.41,81.56,81.56,0,0,1-23.24,16,85.21,85.21,0,0,1-19,6c-2.86.55-5.74,1-8.64,1.3-2.61.27-5.21.48-7.83.52-1.2,0-2.4.16-3.6.14-2.53,0-5.06-.07-7.59-.25a88.4,88.4,0,0,1-23.62-4.79A69.51,69.51,0,0,1,84.81,263.1a63.8,63.8,0,0,1-5.8-5.47,4.75,4.75,0,0,1-.47-.75h0a2.66,2.66,0,0,1,.67.25,62.88,62.88,0,0,0,7.94,5.23c2,1.1,4.06,2.05,6.12,3a61.92,61.92,0,0,0,7.44,2.84,78.07,78.07,0,0,0,10.21,2.53q3.28.58,6.59,1c1.4.18,2.82.17,4.22.32a97.74,97.74,0,0,0,12.34.18,37.22,37.22,0,0,0,5.37-.4c.93-.14,1.87-.21,2.8-.29a48,48,0,0,0,5.47-.76c2-.42,4.12-.76,6.15-1.25a82.84,82.84,0,0,0,12.93-4.24,76,76,0,0,0,13.1-7.08,83.31,83.31,0,0,0,8.11-6.29c2.13-1.87,4.13-3.88,6.08-5.93a72,72,0,0,0,5.08-6c.26-.34.48-.73,1-.77a3.57,3.57,0,0,1,.67.36l6.46,5.11C207.52,244.94,207.72,245.15,208,245.4Z"/><path class="cls-5" d="M166.69,163.85a1.2,1.2,0,0,1-.38,0,17.78,17.78,0,0,0-5.33-.69c-1.84,0-3.69,0-5.54,0a36.12,36.12,0,0,0-16.91,4.22,38.36,38.36,0,0,0-10.69,8.56,44.93,44.93,0,0,0-8.66,15.22,47.88,47.88,0,0,0-2.27,10.66,43.23,43.23,0,0,0-.18,5.91,29.57,29.57,0,0,0,3.4,13.34,7.41,7.41,0,0,1,.25.71h0a3.57,3.57,0,0,1-.57-.23,17.61,17.61,0,0,1-3.53-3,26,26,0,0,1-4.13-6.18,29,29,0,0,1-2.08-6.33,22.88,22.88,0,0,1-.57-5.22c0-.34-.1-.68-.11-1,0-.59,0-1.19,0-1.79s.14-1.11.14-1.66a39.6,39.6,0,0,1,1.12-8.12,46.48,46.48,0,0,1,2.63-8c.58-1.34,1.23-2.64,1.94-3.92a37.15,37.15,0,0,1,3.26-5.08,42,42,0,0,1,4.83-5.49,37.81,37.81,0,0,1,13.1-7.94,38.47,38.47,0,0,1,6.86-1.63,32.13,32.13,0,0,1,6.93-.25,25.07,25.07,0,0,1,12.12,3.82,20,20,0,0,1,4.12,3.46,2.75,2.75,0,0,1,.31.67Z"/><path class="cls-6" d="M226.62,161.55c-.13.39-.44.42-.73.49l-11.63,2.81-19.62,4.72-20.63,5a4.34,4.34,0,0,1-.63.07c1-.48,2-1,3-1.42,1.72-.77,3.46-1.5,5.19-2.25l7.08-3.06c2.39-1,4.79-2.1,7.18-3.16l4.24-1.85,5.31-2.29,9.32-4c1.33-.58,2.67-1.17,4-1.77.5-.22.62-.44.47-1-.23-.92-.47-1.83-.75-2.73a54.37,54.37,0,0,0-2.93-7.81,56.82,56.82,0,0,0-3.66-6.79c-.73-1.11-1.51-2.19-2.28-3.28-.17-.24-.39-.46-.29-.79l.19.11a2.9,2.9,0,0,1,.55.36,54.85,54.85,0,0,1,13.86,20.06A57.27,57.27,0,0,1,226.62,161.55Z"/><path class="cls-7" d="M119.55,52l-3.33-1a1.19,1.19,0,0,0-1.06-.24l-.21,0a1.65,1.65,0,0,0-1.33-.24h-.22a3.13,3.13,0,0,0-1.86-.23l-.46,0a5.76,5.76,0,0,0-1-.19c-2.26,0-4.52,0-6.78,0-.47,0-.94,0-1.41,0H89.11l-2.3,0-.46,0a4.18,4.18,0,0,0-2.1-.24.83.83,0,0,1-.22,0,1.8,1.8,0,0,0-1.32-.23,33.33,33.33,0,0,1-15.16-7.17,32.12,32.12,0,0,1-4.44-4.44,7.29,7.29,0,0,1-.49-.74,1.43,1.43,0,0,1,1,.3,33.41,33.41,0,0,0,8,3.76,33.7,33.7,0,0,0,4.87,1.12,45.91,45.91,0,0,0,7.41.49c6.13,0,12.27,0,18.41,0a29,29,0,0,1,3.83.34,28.65,28.65,0,0,1,3.5.73,17.44,17.44,0,0,1,6.62,3.28,11.91,11.91,0,0,1,3.12,4A4,4,0,0,1,119.55,52Z"/><path class="cls-8" d="M105.71.18c-.51,0-1,.09-1.53.09H50.65c-.47,0-.94,0-1.41,0a1.66,1.66,0,0,0,0-.22C49.64,0,50.07,0,50.5,0h51.9c1.08,0,2.15,0,3.22,0Z"/><path class="cls-9" d="M120.33,122.18a2.5,2.5,0,0,1-1.38.18H108.53l-8.62,0c-.26,0-.52,0-.77,0a15.23,15.23,0,0,1,1.89-.23c2.06,0,4.12,0,6.17,0h12.59Z"/><path class="cls-10" d="M95.85,78.37a5.73,5.73,0,0,1-1,.18q-6.64,0-13.3,0c-1.37,0-2.73,0-4.1-.06a1,1,0,0,0,.11-.17l8.88,0,6.81,0Z"/><path class="cls-11" d="M103.34,50.2c-.26,0-.51,0-.78,0-4.7,0-9.42,0-14.13,0A2.6,2.6,0,0,1,86.81,50l2.3,0H101.9c.47,0,.94,0,1.41,0A1.13,1.13,0,0,0,103.34,50.2Z"/><path class="cls-12" d="M111.08,50.21a4,4,0,0,1-.5.06l-7.24-.07a1.13,1.13,0,0,1,0-.18c2.26,0,4.52,0,6.78,0A5.76,5.76,0,0,1,111.08,50.21Z"/><path class="cls-13" d="M111.33.24c-1,0-2,0-2.93,0L105.71.18,105.62,0c1.74,0,3.49,0,5.23.06A1.77,1.77,0,0,1,111.33.24Z"/><path class="cls-14" d="M115.94.51a21.5,21.5,0,0,1-4.39-.26A15,15,0,0,1,115.94.51Z"/><path class="cls-15" d="M97.14,78l-1.29.33-2.59-.08c.21,0,.41-.09.62-.11L96.51,78C96.72,78,96.94,78,97.14,78Z"/><path class="cls-12" d="M122.91,121.85a9,9,0,0,1-2.58.33l-.54-.09Z"/><path class="cls-16" d="M121.63,1a6.42,6.42,0,0,1-2.35-.25A4.71,4.71,0,0,1,121.63,1Z"/><path class="cls-14" d="M75.25,78.57a6.39,6.39,0,0,1-2.34.25h0A4.52,4.52,0,0,1,75.25,78.57Z"/><path class="cls-14" d="M118,.74,116,.51l2,.05A1.1,1.1,0,0,1,118,.74Z"/><path class="cls-16" d="M77.57,78.34a1,1,0,0,1-.11.17l-2,0A3.9,3.9,0,0,1,77.57,78.34Z"/><path class="cls-17" d="M123.69,1.28A4.6,4.6,0,0,1,121.61,1a3.82,3.82,0,0,1,2.06.25Z"/><path class="cls-18" d="M86.35,50a4.18,4.18,0,0,1-2.1-.24A4.18,4.18,0,0,1,86.35,50Z"/><path class="cls-12" d="M113.4,50.47a3.58,3.58,0,0,1-1.86-.23A3.13,3.13,0,0,1,113.4,50.47Z"/><path class="cls-15" d="M99.21,77.79a3.59,3.59,0,0,1-1.86.24A3.29,3.29,0,0,1,99.21,77.79Z"/><path class="cls-14" d="M72.92,78.82h0a3.83,3.83,0,0,1-1.8.25A2.89,2.89,0,0,1,72.92,78.82Z"/><path class="cls-14" d="M128.83,2a3,3,0,0,1-1.54-.25h0A2.17,2.17,0,0,1,128.83,2Z"/><path class="cls-14" d="M127.29,1.79a2.9,2.9,0,0,1-1.57-.25A2.27,2.27,0,0,1,127.29,1.79Z"/><path class="cls-18" d="M124.71,121.58a2.75,2.75,0,0,1-1.6.24A2.47,2.47,0,0,1,124.71,121.58Z"/><path class="cls-18" d="M84,49.68a1.9,1.9,0,0,1-1.32-.23A1.8,1.8,0,0,1,84,49.68Z"/><path class="cls-18" d="M96.87,122.61a2.28,2.28,0,0,1-1.31.26A1.66,1.66,0,0,1,96.87,122.61Z"/><path class="cls-17" d="M125,1.51l-1.29-.24,1.28.07A1,1,0,0,1,125,1.51Z"/><path class="cls-18" d="M126.24,121.32a2.08,2.08,0,0,1-1.32.24A1.76,1.76,0,0,1,126.24,121.32Z"/><path class="cls-18" d="M115,50.72a2.35,2.35,0,0,1-1.33-.24A1.65,1.65,0,0,1,115,50.72Z"/><path class="cls-17" d="M69.56,79.33a2.18,2.18,0,0,1-1.33.24A1.73,1.73,0,0,1,69.56,79.33Z"/><path class="cls-15" d="M131.69,2.57a2.09,2.09,0,0,1-1.34-.26A1.81,1.81,0,0,1,131.69,2.57Z"/><path class="cls-14" d="M71.1,79.07l-1,.22c0-.06,0-.11,0-.17Z"/><path class="cls-16" d="M119.07.75H118a1.1,1.1,0,0,0,0-.18Z"/><path class="cls-15" d="M66.75,79.85a1.4,1.4,0,0,1-1,.25h0A1.2,1.2,0,0,1,66.75,79.85Z"/><path class="cls-15" d="M65.69,80.1a1.44,1.44,0,0,1-1,.25A1.14,1.14,0,0,1,65.69,80.1Z"/><path class="cls-15" d="M64.66,80.35a1.47,1.47,0,0,1-1,.27A1.12,1.12,0,0,1,64.66,80.35Z"/><path class="cls-15" d="M134,3.08a1.45,1.45,0,0,1-1.07-.25,1.19,1.19,0,0,1,1.06.24h0Z"/><path class="cls-15" d="M135,3.33a1.44,1.44,0,0,1-1-.25h0A1.13,1.13,0,0,1,135,3.33Z"/><path class="cls-15" d="M136.05,3.59h0a1.43,1.43,0,0,1-1-.26A1.12,1.12,0,0,1,136.05,3.59Z"/><path class="cls-15" d="M137.07,3.85h0a1.42,1.42,0,0,1-1-.26A1.14,1.14,0,0,1,137.07,3.85Z"/><path class="cls-19" d="M48.48,14.94a4.43,4.43,0,0,1-.06-.51A.36.36,0,0,1,48.48,14.94Z"/><path class="cls-18" d="M116.22,51a1.42,1.42,0,0,1-1.06-.24A1.19,1.19,0,0,1,116.22,51Z"/><path class="cls-17" d="M102.05,77.28a1.4,1.4,0,0,1-1.1.24A1.32,1.32,0,0,1,102.05,77.28Z"/><path class="cls-14" d="M129.6,2.08a.92.92,0,0,0,0,.16l-.75-.2Z"/><path class="cls-17" d="M105.13,76.5a1,1,0,0,1-.83.24A.83.83,0,0,1,105.13,76.5Z"/><path class="cls-15" d="M104.11,76.77a.91.91,0,0,1-.83.23A.83.83,0,0,1,104.11,76.77Z"/><path class="cls-17" d="M100.76,77.54l-.8.22a1.15,1.15,0,0,0,0-.18Z"/><path class="cls-15" d="M62.63,80.89a1,1,0,0,1-.81.24A.76.76,0,0,1,62.63,80.89Z"/><path class="cls-15" d="M61.82,81.13l-.8.24A.74.74,0,0,1,61.82,81.13Z"/><path class="cls-12" d="M131.66,120a.9.9,0,0,1-.83.23A.85.85,0,0,1,131.66,120Z"/><path class="cls-14" d="M107.41,75.7a.85.85,0,0,1-.75.28h0A.77.77,0,0,1,107.41,75.7Z"/><path class="cls-14" d="M106.65,76a.87.87,0,0,1-.79.27A.79.79,0,0,1,106.65,76Z"/><path class="cls-15" d="M63.63,80.62l-.81.22h0l.06-.06a.66.66,0,0,1,.2-.14l.14,0A1.21,1.21,0,0,1,63.63,80.62Z"/><path class="cls-15" d="M144.82,6.43a.91.91,0,0,1-.77-.29A.78.78,0,0,1,144.82,6.43Z"/><path class="cls-14" d="M143.51,5.93a.85.85,0,0,1-.76-.28h0a.79.79,0,0,1,.76.27Z"/><path class="cls-14" d="M142.75,5.65h0L142,5.38A.75.75,0,0,1,142.75,5.65Z"/><path class="cls-14" d="M142,5.38h0l-.77-.26A.71.71,0,0,1,142,5.38Z"/><path class="cls-15" d="M141.21,5.12l-.77-.26A.71.71,0,0,1,141.21,5.12Z"/><path class="cls-15" d="M140.44,4.86l-.78-.25A.75.75,0,0,1,140.44,4.86Z"/><path class="cls-15" d="M139.66,4.61a.91.91,0,0,1-.8-.25A.79.79,0,0,1,139.66,4.61Z"/><path class="cls-15" d="M137.89,4.09l-.81-.24A.78.78,0,0,1,137.89,4.09Z"/><path class="cls-19" d="M50.25,21.12,50,20.59A.44.44,0,0,1,50.25,21.12Z"/><path class="cls-14" d="M125.52,1.52H125a1,1,0,0,0,0-.17Z"/><path class="cls-17" d="M130.15,2.29l-.56,0a.92.92,0,0,1,0-.16Z"/><path class="cls-14" d="M108,75.47l-.55.23A.45.45,0,0,1,108,75.47Z"/><path class="cls-15" d="M100,77.58a1.15,1.15,0,0,1,0,.18h-.55Z"/><path class="cls-16" d="M70.09,79.12c0,.06,0,.11,0,.17l-.53,0Z"/><path class="cls-15" d="M144.05,6.14l-.54-.21h0A.44.44,0,0,1,144.05,6.14Z"/><path class="cls-20" d="M179.74,42l-.13-.33Z"/><path class="cls-19" d="M49.84,20.06l.13.31Z"/><path class="cls-7" d="M62.19,36.58l.18.21Z"/><path class="cls-7" d="M119.61,52l.21.19Z"/><path class="cls-19" d="M49.58,19.29l.13.32Z"/><path class="cls-21" d="M15.42,126l-.14.33Z"/><path class="cls-21" d="M15.09,127l-.12.32Z"/><path class="cls-21" d="M14.86,127.74l-.13.32Z"/><path class="cls-21" d="M14.63,128.52l-.13.33Z"/><path class="cls-6" d="M208.75,131.84l-.27-.28Z"/><path class="cls-6" d="M209,132.1l-.26-.26Z"/><path class="cls-6" d="M209.26,132.36l-.26-.26Z"/><path class="cls-19" d="M49.34,18.51l.11.32Z"/><path class="cls-21" d="M119.9,52.5l.14.33Z"/><path class="cls-5" d="M166.68,163.85l.3.2Z"/><path class="cls-3" d="M1.77,190.63l-.06.09-.1,0C1.64,190.61,1.69,190.59,1.77,190.63Z"/><path class="cls-22" d="M.27,191.16c-.22,0-.35,0-.22-.26Z"/><path class="cls-19" d="M49,17.49l.13.33Z"/><path class="cls-5" d="M120.61,222l-.26-.27Z"/><path class="cls-19" d="M49.24.29l-.09,0-.1,0,.16-.24A1.66,1.66,0,0,1,49.24.29Z"/><path class="cls-4" d="M77.75,256.13l.29.25Z"/><path class="cls-4" d="M78,256.36l.27.27Z"/><path class="cls-4" d="M78.29,256.62l.27.27Z"/></g></g></svg>